<mxfile host="app.diagrams.net" agent="Mozilla/5.0 (Windows NT 10.0; Win64; x64) AppleWebKit/537.36 (KHTML, like Gecko) Chrome/130.0.0.0 Safari/537.36" version="24.8.3">
  <diagram name="Page-1" id="vCg_MlWZA_7JhtkfMOp2">
    <mxGraphModel dx="2074" dy="1104" grid="1" gridSize="10" guides="1" tooltips="1" connect="1" arrows="1" fold="1" page="1" pageScale="1" pageWidth="850" pageHeight="1100" math="0" shadow="0">
      <root>
        <mxCell id="0" />
        <mxCell id="1" parent="0" />
        <mxCell id="FswJCTiF_LaIAhzLPm2B-1" value="" style="whiteSpace=wrap;html=1;aspect=fixed;fillColor=default;" parent="1" vertex="1">
          <mxGeometry x="153" y="278" width="545" height="545" as="geometry" />
        </mxCell>
        <mxCell id="FswJCTiF_LaIAhzLPm2B-2" value="" style="rounded=0;whiteSpace=wrap;html=1;" parent="1" vertex="1">
          <mxGeometry x="153" y="278" width="545" height="60" as="geometry" />
        </mxCell>
        <mxCell id="FswJCTiF_LaIAhzLPm2B-77" value="User" style="ellipse;whiteSpace=wrap;html=1;aspect=fixed;" parent="1" vertex="1">
          <mxGeometry x="640" y="278" width="58" height="58" as="geometry" />
        </mxCell>
        <mxCell id="FswJCTiF_LaIAhzLPm2B-105" value="" style="rounded=1;whiteSpace=wrap;html=1;" parent="1" vertex="1">
          <mxGeometry x="158" y="375" width="260" height="210" as="geometry" />
        </mxCell>
        <mxCell id="FswJCTiF_LaIAhzLPm2B-106" value="Ship 1" style="text;html=1;align=center;verticalAlign=middle;whiteSpace=wrap;rounded=0;" parent="1" vertex="1">
          <mxGeometry x="253" y="370" width="60" height="30" as="geometry" />
        </mxCell>
        <mxCell id="FswJCTiF_LaIAhzLPm2B-109" value="" style="rounded=0;whiteSpace=wrap;html=1;" parent="1" vertex="1">
          <mxGeometry x="310" y="400" width="100" height="160" as="geometry" />
        </mxCell>
        <mxCell id="FswJCTiF_LaIAhzLPm2B-113" value="" style="rounded=0;whiteSpace=wrap;html=1;" parent="1" vertex="1">
          <mxGeometry x="173" y="400" width="120" height="70" as="geometry" />
        </mxCell>
        <mxCell id="FswJCTiF_LaIAhzLPm2B-107" value="Size" style="text;html=1;align=center;verticalAlign=middle;whiteSpace=wrap;rounded=0;" parent="1" vertex="1">
          <mxGeometry x="203" y="400" width="60" height="30" as="geometry" />
        </mxCell>
        <mxCell id="FswJCTiF_LaIAhzLPm2B-108" value="Crew" style="text;html=1;align=center;verticalAlign=middle;whiteSpace=wrap;rounded=0;" parent="1" vertex="1">
          <mxGeometry x="330" y="400" width="60" height="30" as="geometry" />
        </mxCell>
        <mxCell id="FswJCTiF_LaIAhzLPm2B-111" value="" style="rounded=0;whiteSpace=wrap;html=1;" parent="1" vertex="1">
          <mxGeometry x="173" y="480" width="120" height="80" as="geometry" />
        </mxCell>
        <mxCell id="FswJCTiF_LaIAhzLPm2B-112" value="Equipment" style="text;html=1;align=center;verticalAlign=middle;whiteSpace=wrap;rounded=0;" parent="1" vertex="1">
          <mxGeometry x="203" y="480" width="60" height="30" as="geometry" />
        </mxCell>
        <mxCell id="FswJCTiF_LaIAhzLPm2B-114" value="Type" style="text;html=1;align=center;verticalAlign=middle;whiteSpace=wrap;rounded=0;" parent="1" vertex="1">
          <mxGeometry x="203" y="440" width="60" height="30" as="geometry" />
        </mxCell>
        <mxCell id="FswJCTiF_LaIAhzLPm2B-115" value="" style="rounded=1;whiteSpace=wrap;html=1;" parent="1" vertex="1">
          <mxGeometry x="165" y="600" width="260" height="210" as="geometry" />
        </mxCell>
        <mxCell id="FswJCTiF_LaIAhzLPm2B-116" value="Ship 2" style="text;html=1;align=center;verticalAlign=middle;whiteSpace=wrap;rounded=0;" parent="1" vertex="1">
          <mxGeometry x="258" y="590" width="60" height="30" as="geometry" />
        </mxCell>
        <mxCell id="FswJCTiF_LaIAhzLPm2B-117" value="" style="rounded=0;whiteSpace=wrap;html=1;" parent="1" vertex="1">
          <mxGeometry x="315" y="620" width="100" height="160" as="geometry" />
        </mxCell>
        <mxCell id="FswJCTiF_LaIAhzLPm2B-118" value="" style="rounded=0;whiteSpace=wrap;html=1;" parent="1" vertex="1">
          <mxGeometry x="178" y="620" width="120" height="70" as="geometry" />
        </mxCell>
        <mxCell id="FswJCTiF_LaIAhzLPm2B-119" value="Size" style="text;html=1;align=center;verticalAlign=middle;whiteSpace=wrap;rounded=0;" parent="1" vertex="1">
          <mxGeometry x="208" y="620" width="60" height="30" as="geometry" />
        </mxCell>
        <mxCell id="FswJCTiF_LaIAhzLPm2B-120" value="Crew" style="text;html=1;align=center;verticalAlign=middle;whiteSpace=wrap;rounded=0;" parent="1" vertex="1">
          <mxGeometry x="335" y="620" width="60" height="30" as="geometry" />
        </mxCell>
        <mxCell id="FswJCTiF_LaIAhzLPm2B-121" value="" style="rounded=0;whiteSpace=wrap;html=1;" parent="1" vertex="1">
          <mxGeometry x="178" y="700" width="120" height="80" as="geometry" />
        </mxCell>
        <mxCell id="FswJCTiF_LaIAhzLPm2B-122" value="Equipment" style="text;html=1;align=center;verticalAlign=middle;whiteSpace=wrap;rounded=0;" parent="1" vertex="1">
          <mxGeometry x="208" y="700" width="60" height="30" as="geometry" />
        </mxCell>
        <mxCell id="FswJCTiF_LaIAhzLPm2B-123" value="Type" style="text;html=1;align=center;verticalAlign=middle;whiteSpace=wrap;rounded=0;" parent="1" vertex="1">
          <mxGeometry x="208" y="660" width="60" height="30" as="geometry" />
        </mxCell>
        <mxCell id="FswJCTiF_LaIAhzLPm2B-124" value="" style="rounded=1;whiteSpace=wrap;html=1;" parent="1" vertex="1">
          <mxGeometry x="430" y="600" width="260" height="210" as="geometry" />
        </mxCell>
        <mxCell id="FswJCTiF_LaIAhzLPm2B-125" value="Spelljammer 1" style="text;html=1;align=center;verticalAlign=middle;whiteSpace=wrap;rounded=0;" parent="1" vertex="1">
          <mxGeometry x="513" y="590" width="87" height="30" as="geometry" />
        </mxCell>
        <mxCell id="FswJCTiF_LaIAhzLPm2B-126" value="" style="rounded=0;whiteSpace=wrap;html=1;" parent="1" vertex="1">
          <mxGeometry x="580" y="620" width="100" height="160" as="geometry" />
        </mxCell>
        <mxCell id="FswJCTiF_LaIAhzLPm2B-127" value="" style="rounded=0;whiteSpace=wrap;html=1;" parent="1" vertex="1">
          <mxGeometry x="443" y="620" width="120" height="70" as="geometry" />
        </mxCell>
        <mxCell id="FswJCTiF_LaIAhzLPm2B-128" value="Size" style="text;html=1;align=center;verticalAlign=middle;whiteSpace=wrap;rounded=0;" parent="1" vertex="1">
          <mxGeometry x="473" y="620" width="60" height="30" as="geometry" />
        </mxCell>
        <mxCell id="FswJCTiF_LaIAhzLPm2B-129" value="Crew" style="text;html=1;align=center;verticalAlign=middle;whiteSpace=wrap;rounded=0;" parent="1" vertex="1">
          <mxGeometry x="600" y="620" width="60" height="30" as="geometry" />
        </mxCell>
        <mxCell id="FswJCTiF_LaIAhzLPm2B-130" value="" style="rounded=0;whiteSpace=wrap;html=1;" parent="1" vertex="1">
          <mxGeometry x="443" y="700" width="120" height="80" as="geometry" />
        </mxCell>
        <mxCell id="FswJCTiF_LaIAhzLPm2B-131" value="Equipment" style="text;html=1;align=center;verticalAlign=middle;whiteSpace=wrap;rounded=0;" parent="1" vertex="1">
          <mxGeometry x="473" y="700" width="60" height="30" as="geometry" />
        </mxCell>
        <mxCell id="FswJCTiF_LaIAhzLPm2B-132" value="Type" style="text;html=1;align=center;verticalAlign=middle;whiteSpace=wrap;rounded=0;" parent="1" vertex="1">
          <mxGeometry x="473" y="660" width="60" height="30" as="geometry" />
        </mxCell>
        <mxCell id="FswJCTiF_LaIAhzLPm2B-133" value="" style="rounded=1;whiteSpace=wrap;html=1;" parent="1" vertex="1">
          <mxGeometry x="430" y="375" width="260" height="210" as="geometry" />
        </mxCell>
        <mxCell id="FswJCTiF_LaIAhzLPm2B-134" value="Cart 1" style="text;html=1;align=center;verticalAlign=middle;whiteSpace=wrap;rounded=0;" parent="1" vertex="1">
          <mxGeometry x="523" y="370" width="60" height="30" as="geometry" />
        </mxCell>
        <mxCell id="FswJCTiF_LaIAhzLPm2B-135" value="" style="rounded=0;whiteSpace=wrap;html=1;" parent="1" vertex="1">
          <mxGeometry x="580" y="400" width="100" height="160" as="geometry" />
        </mxCell>
        <mxCell id="FswJCTiF_LaIAhzLPm2B-136" value="" style="rounded=0;whiteSpace=wrap;html=1;" parent="1" vertex="1">
          <mxGeometry x="443" y="400" width="120" height="70" as="geometry" />
        </mxCell>
        <mxCell id="FswJCTiF_LaIAhzLPm2B-137" value="Size" style="text;html=1;align=center;verticalAlign=middle;whiteSpace=wrap;rounded=0;" parent="1" vertex="1">
          <mxGeometry x="473" y="400" width="60" height="30" as="geometry" />
        </mxCell>
        <mxCell id="FswJCTiF_LaIAhzLPm2B-138" value="Crew" style="text;html=1;align=center;verticalAlign=middle;whiteSpace=wrap;rounded=0;" parent="1" vertex="1">
          <mxGeometry x="600" y="400" width="60" height="30" as="geometry" />
        </mxCell>
        <mxCell id="FswJCTiF_LaIAhzLPm2B-139" value="" style="rounded=0;whiteSpace=wrap;html=1;" parent="1" vertex="1">
          <mxGeometry x="443" y="480" width="120" height="80" as="geometry" />
        </mxCell>
        <mxCell id="FswJCTiF_LaIAhzLPm2B-140" value="Equipment" style="text;html=1;align=center;verticalAlign=middle;whiteSpace=wrap;rounded=0;" parent="1" vertex="1">
          <mxGeometry x="473" y="480" width="60" height="30" as="geometry" />
        </mxCell>
        <mxCell id="FswJCTiF_LaIAhzLPm2B-141" value="Type" style="text;html=1;align=center;verticalAlign=middle;whiteSpace=wrap;rounded=0;" parent="1" vertex="1">
          <mxGeometry x="473" y="440" width="60" height="30" as="geometry" />
        </mxCell>
        <mxCell id="dtP0skx3PN0hYIcFsRl8-1" value="Add Vehicle" style="rounded=1;whiteSpace=wrap;html=1;" vertex="1" parent="1">
          <mxGeometry x="355" y="340" width="140" height="30" as="geometry" />
        </mxCell>
        <mxCell id="dtP0skx3PN0hYIcFsRl8-2" value="Home" style="text;html=1;align=center;verticalAlign=middle;whiteSpace=wrap;rounded=0;" vertex="1" parent="1">
          <mxGeometry x="273" y="308" width="60" height="30" as="geometry" />
        </mxCell>
        <mxCell id="dtP0skx3PN0hYIcFsRl8-3" value="Transactions" style="text;html=1;align=center;verticalAlign=middle;whiteSpace=wrap;rounded=0;" vertex="1" parent="1">
          <mxGeometry x="335" y="308" width="60" height="30" as="geometry" />
        </mxCell>
        <mxCell id="dtP0skx3PN0hYIcFsRl8-4" value="Items" style="text;html=1;align=center;verticalAlign=middle;whiteSpace=wrap;rounded=0;" vertex="1" parent="1">
          <mxGeometry x="395.5" y="308" width="60" height="30" as="geometry" />
        </mxCell>
        <mxCell id="dtP0skx3PN0hYIcFsRl8-5" value="Vehicles" style="text;html=1;align=center;verticalAlign=middle;whiteSpace=wrap;rounded=0;" vertex="1" parent="1">
          <mxGeometry x="450" y="308" width="60" height="30" as="geometry" />
        </mxCell>
        <mxCell id="dtP0skx3PN0hYIcFsRl8-6" value="" style="rounded=0;whiteSpace=wrap;html=1;" vertex="1" parent="1">
          <mxGeometry x="153" y="278" width="120" height="60" as="geometry" />
        </mxCell>
        <mxCell id="dtP0skx3PN0hYIcFsRl8-7" value="World Date" style="text;html=1;align=center;verticalAlign=middle;whiteSpace=wrap;rounded=0;" vertex="1" parent="1">
          <mxGeometry x="173" y="278" width="80" height="30" as="geometry" />
        </mxCell>
        <mxCell id="dtP0skx3PN0hYIcFsRl8-8" value="Spring 55, 1805 AG" style="text;html=1;align=center;verticalAlign=middle;whiteSpace=wrap;rounded=0;" vertex="1" parent="1">
          <mxGeometry x="153" y="308" width="117" height="30" as="geometry" />
        </mxCell>
        <mxCell id="dtP0skx3PN0hYIcFsRl8-9" value="Hirelings" style="text;html=1;align=center;verticalAlign=middle;whiteSpace=wrap;rounded=0;" vertex="1" parent="1">
          <mxGeometry x="510" y="308" width="60" height="30" as="geometry" />
        </mxCell>
        <mxCell id="dtP0skx3PN0hYIcFsRl8-10" value="Party" style="text;html=1;align=center;verticalAlign=middle;whiteSpace=wrap;rounded=0;" vertex="1" parent="1">
          <mxGeometry x="570" y="308" width="60" height="30" as="geometry" />
        </mxCell>
      </root>
    </mxGraphModel>
  </diagram>
</mxfile>
